<svg xmlns="http://www.w3.org/2000/svg" xml:space="preserve" viewBox="0 0 512 512">
  <circle cx="256" cy="256" r="232.7" style="opacity:.2;fill:#e05d44"/>
  <path d="M256 512C114.8 512 0 397.2 0 256S114.8 0 256 0s256 114.8 256 256-114.8 256-256 256m0-465.4c-115.5 0-209.5 94-209.5 209.5s94 209.5 209.5 209.5 209.5-94 209.5-209.5c0-115.6-94-209.5-209.5-209.5" style="fill:#e05d44"/>
  <path d="M256 120 c0 60, 40 100, 100 100 c-60 0, -100 40, -100 100 c0 -60, -40 -100, -100 -100 c60 0, 100 -40, 100 -100 z" style="fill:#e05d44"/>
</svg>
